<svg id="Layer_1" data-name="Layer 1" xmlns="http://www.w3.org/2000/svg" viewBox="0 0 65.61 93.75"><defs><style>.cls-1{fill:#3fadf7;}</style></defs><title>pull-up</title><path class="cls-1" d="M40.26,15.65A7.46,7.46,0,1,1,32.81,8.2,7.46,7.46,0,0,1,40.26,15.65ZM65.61,3.86a.89.89,0,0,1-.89.89H50.09A1.12,1.12,0,0,0,49,5.92c.28,6,.78,19,0,24-1.07,6.61-5.65,7.23-5.65,7.23l-.78.18v24a.57.57,0,0,1,0,.13L41.14,72.36a1,1,0,0,0,.09.6l5.71,12.48a1.83,1.83,0,0,1,.08.25c.14.76.63,4.23-2.58,5.46s-4.82-.8-5.12-1.24l-.09-.16L32.58,75.28a4.51,4.51,0,0,1-.38-2.43l1.27-10.18a1.1,1.1,0,0,0-1.1-1.25h0a1.11,1.11,0,0,0-1.11,1L29.74,74.56a1.26,1.26,0,0,0,.09.61l5.71,12.47a1.34,1.34,0,0,1,.09.26c.14.75.62,4.23-2.58,5.45s-4.84-.81-5.13-1.25a.71.71,0,0,1-.08-.15L21.55,78.22a7.54,7.54,0,0,1-.62-4.08L22.5,61.49v-.15l-.16-24v-.59h0s-4.58-.63-5.65-7.24c-.8-4.9-.34-17.47-.06-23.6a1.11,1.11,0,0,0-1.11-1.16H.89A.89.89,0,0,1,.89,3H16.77l0-.54S17.18.61,20,.07A2.88,2.88,0,0,1,23.4,2.35V3H42.21V2.73A2.88,2.88,0,0,1,45.62.45c2.81.54,3.19,2.37,3.19,2.37s0,.06,0,.15h15.9A.89.89,0,0,1,65.61,3.86Zm-25.84,21,.54.06,2,.24L42.22,4.75H23.39L23.3,25h.31A75.06,75.06,0,0,1,39.77,24.89Z"/></svg>